# xmcd
#
# Track frame offsets: 
#        150
#        17452
#        31705
#        55847
#        76560
#
# Disc length: 1202 seconds
#
# Revision: 0
# Processed by: cddbd v1.5.2PL0 Copyright (c) Steve Scherf et al.
# Submitted via: ExactAudioCopyFreeDBPlugin 1.0
#
DISCID=2304b005
DTITLE=Tingle Foot - Tingle Foot
DYEAR=1900
DGENRE=
TTITLE0=Money
TTITLE1=Midnight Train
TTITLE2=The Tears in your Eyes
TTITLE3=Keep on going
TTITLE4=Years of Roaming
EXTD=
EXTT0=
EXTT1=
EXTT2=
EXTT3=
EXTT4=
PLAYORDER=
